<svg width="120" height="120" viewBox="0 0 120 120" fill="none" xmlns="http://www.w3.org/2000/svg">
<path d="M59.5578 109.06C60.9386 109.06 62.0578 110.179 62.0578 111.56C62.0578 112.94 60.9386 114.06 59.5578 114.06C58.1774 114.059 57.0578 112.94 57.0578 111.56C57.0578 110.179 58.1774 109.06 59.5578 109.06ZM46.51 109.925C46.7973 108.575 48.1245 107.713 49.4748 108C50.8252 108.287 51.6877 109.614 51.4006 110.965C51.1135 112.315 49.7853 113.178 48.4348 112.891C47.0845 112.603 46.223 111.275 46.51 109.925ZM69.6418 107.999C70.9924 107.712 72.3206 108.574 72.6077 109.925C72.8946 111.275 72.0322 112.602 70.6819 112.89C69.3314 113.177 68.0041 112.314 67.717 110.964C67.4302 109.614 68.2916 108.286 69.6418 107.999ZM36.5305 106.134C37.092 104.873 38.57 104.305 39.8313 104.866C41.0925 105.428 41.6601 106.906 41.0989 108.167C40.5373 109.428 39.0593 109.996 37.7981 109.435C36.5369 108.873 35.9692 107.395 36.5305 106.134ZM79.2854 104.866C80.5466 104.305 82.0246 104.872 82.5862 106.133C83.1478 107.394 82.5799 108.872 81.3186 109.434C80.0573 109.995 78.5794 109.428 78.0178 108.167C77.4563 106.906 78.0241 105.428 79.2854 104.866ZM27.5588 100.35C28.3704 99.2329 29.9341 98.9855 31.051 99.7969C32.1679 100.608 32.4153 102.172 31.6037 103.289C30.7921 104.406 29.2285 104.653 28.1116 103.842C26.9949 103.03 26.7474 101.466 27.5588 100.35ZM88.0657 99.7969C89.1826 98.9853 90.7463 99.2327 91.5578 100.35C92.3694 101.467 92.1221 103.03 91.0051 103.842C89.8881 104.653 88.3245 104.405 87.5129 103.288C86.7018 102.171 86.9492 100.608 88.0657 99.7969ZM19.9846 92.8271C21.0106 91.9033 22.592 91.9867 23.5159 93.0127C24.4394 94.0388 24.3563 95.6192 23.3303 96.543C22.3043 97.4665 20.7239 97.3841 19.8 96.3584C18.8763 95.3324 18.9588 93.751 19.9846 92.8271ZM95.6008 93.0127C96.5246 91.9867 98.105 91.9036 99.1311 92.8271C100.157 93.7509 100.24 95.3313 99.3166 96.3574C98.3927 97.3834 96.8114 97.4668 95.7854 96.543C94.7597 95.6192 94.6774 94.0387 95.6008 93.0127ZM14.1409 83.8945C15.3366 83.2042 16.8655 83.6139 17.5559 84.8096C18.2462 86.0053 17.8365 87.5342 16.6409 88.2246C15.4452 88.9149 13.9162 88.5052 13.2258 87.3096C12.5355 86.1139 12.9452 84.5849 14.1409 83.8945ZM101.561 84.8096C102.251 83.6139 103.78 83.2043 104.976 83.8945C106.171 84.5849 106.581 86.1139 105.891 87.3096C105.201 88.5052 103.672 88.9149 102.476 88.2246C101.28 87.5342 100.87 86.0053 101.561 84.8096ZM10.2815 73.9424C11.5945 73.5157 13.0051 74.2339 13.4319 75.5469C13.8585 76.8599 13.1403 78.2705 11.8274 78.6973C10.5143 79.1238 9.10364 78.4049 8.67699 77.0918C8.25056 75.7789 8.96884 74.3693 10.2815 73.9424ZM105.684 75.5469C106.11 74.2338 107.521 73.5149 108.834 73.9414C110.147 74.3681 110.866 75.7787 110.44 77.0918C110.013 78.4048 108.602 79.1229 107.289 78.6963C105.976 78.2696 105.258 76.8598 105.684 75.5469ZM8.5764 63.4033C9.94953 63.259 11.1801 64.2558 11.3244 65.6289C11.4687 67.002 10.4719 68.2317 9.09886 68.376C7.72578 68.5202 6.49612 67.5245 6.35179 66.1514C6.20747 64.7782 7.20325 63.5476 8.5764 63.4033ZM110.54 63.4033C111.913 63.5477 112.909 64.7782 112.765 66.1514C112.621 67.5244 111.391 68.5202 110.018 68.376C108.645 68.2316 107.648 67.0019 107.792 65.6289C107.937 64.2558 109.167 63.2591 110.54 63.4033ZM9.09886 52.7422C10.4719 52.8865 11.4686 54.1162 11.3244 55.4893C11.1801 56.8624 9.94955 57.8592 8.5764 57.7148C7.20333 57.5704 6.20747 56.3399 6.35179 54.9668C6.49613 53.5938 7.72586 52.5981 9.09886 52.7422ZM110.018 52.7422C111.391 52.5979 112.621 53.5937 112.765 54.9668C112.909 56.3399 111.913 57.5705 110.54 57.7148C109.167 57.859 107.938 56.8623 107.793 55.4893C107.649 54.1162 108.645 52.8866 110.018 52.7422ZM8.67699 44.0264C9.10378 42.7134 10.5143 41.9952 11.8274 42.4219C13.1401 42.8487 13.8582 44.2584 13.4319 45.5713C13.0052 46.8844 11.5946 47.6034 10.2815 47.1768C8.9686 46.7499 8.25037 45.3394 8.67699 44.0264ZM107.289 42.4219C108.602 41.9952 110.013 42.7142 110.44 44.0273C110.866 45.3404 110.147 46.7501 108.834 47.1768C107.521 47.6032 106.112 46.8851 105.685 45.5723C105.258 44.2592 105.976 42.8486 107.289 42.4219ZM13.2258 33.8096C13.9161 32.6139 15.4451 32.2043 16.6409 32.8945C17.8366 33.5849 18.2463 35.1138 17.5559 36.3096C16.8655 37.5052 15.3365 37.9149 14.1409 37.2246C12.9453 36.5342 12.5356 35.0052 13.2258 33.8096ZM102.476 32.8945C103.672 32.2043 105.201 32.6139 105.891 33.8096C106.581 35.0053 106.171 36.5342 104.976 37.2246C103.78 37.9149 102.251 37.5052 101.561 36.3096C100.87 35.1139 101.28 33.5849 102.476 32.8945ZM19.8 24.7617C20.7239 23.7356 22.3052 23.6523 23.3313 24.5762C24.3571 25.5 24.4395 27.0804 23.5159 28.1064C22.592 29.1325 21.0117 29.2157 19.9856 28.292C18.9596 27.3682 18.8765 25.7878 19.8 24.7617ZM95.7854 24.5762C96.8114 23.6524 98.3927 23.7349 99.3166 24.7607C100.241 25.7868 100.157 27.3681 99.1311 28.292C98.105 29.2155 96.5246 29.1324 95.6008 28.1064C94.6773 27.0805 94.7597 25.5 95.7854 24.5762ZM87.5129 17.8301C88.3245 16.7133 89.8872 16.4661 91.0041 17.2773C92.1212 18.0889 92.3694 19.6525 91.5578 20.7695C90.7462 21.8863 89.1826 22.1337 88.0657 21.3223C86.9487 20.5107 86.7014 18.9471 87.5129 17.8301ZM28.1116 17.2764C29.2286 16.4648 30.7922 16.7131 31.6037 17.8301C32.4151 18.947 32.1677 20.5097 31.051 21.3213C29.934 22.1329 28.3704 21.8856 27.5588 20.7686C26.7473 19.6516 26.9946 18.0879 28.1116 17.2764ZM37.7981 11.6846C39.0594 11.123 40.5372 11.6899 41.0989 12.9512C41.6604 14.2125 41.0926 15.6904 39.8313 16.252C38.57 16.8133 37.0921 16.2465 36.5305 14.9854C35.9689 13.724 36.5367 12.2462 37.7981 11.6846ZM78.0178 12.9521C78.5794 11.6909 80.0573 11.1232 81.3186 11.6846C82.5799 12.2462 83.1468 13.724 82.5852 14.9854C82.0236 16.2465 80.5466 16.8141 79.2854 16.2529C78.0243 15.6914 77.4565 14.2134 78.0178 12.9521ZM48.4348 8.22852C49.7853 7.94145 51.1136 8.80376 51.4006 10.1543C51.6874 11.5046 50.8251 12.832 49.4748 13.1191C48.1243 13.4062 46.7961 12.5439 46.509 11.1934C46.2221 9.84297 47.0845 8.51571 48.4348 8.22852ZM67.716 10.1543C68.0031 8.80397 69.3306 7.94184 70.6809 8.22852C72.0314 8.51558 72.8937 9.8438 72.6067 11.1943C72.3194 12.5446 70.9922 13.4062 69.6418 13.1191C68.2914 12.832 67.429 11.5048 67.716 10.1543ZM59.5578 7.05957C60.9386 7.05957 62.0578 8.17886 62.0578 9.55957C62.0578 10.9403 60.9386 12.0596 59.5578 12.0596C58.1774 12.0593 57.0578 10.9401 57.0578 9.55957C57.0578 8.17903 58.1774 7.05985 59.5578 7.05957Z" fill="black"/>
<path d="M93 60C93 41.7746 78.2254 27 60 27C41.7746 27 27 41.7746 27 60C27 78.2254 41.7746 93 60 93C78.2254 93 93 78.2254 93 60ZM99 60C99 81.5391 81.5391 99 60 99C38.4609 99 21 81.5391 21 60C21 38.4609 38.4609 21 60 21C81.5391 21 99 38.4609 99 60Z" fill="black"/>
<path d="M60 36C73.2548 36 84 46.7452 84 60C84 73.2548 73.2548 84 60 84C46.7452 84 36 73.2548 36 60C36 46.7452 46.7452 36 60 36Z" fill="black"/>
</svg>
