<svg width="120" height="120" viewBox="0 0 120 120" fill="none" xmlns="http://www.w3.org/2000/svg">
<path fill-rule="evenodd" clip-rule="evenodd" d="M34 6.5C27.0964 6.5 21.5 12.0964 21.5 19V21.5H19C12.0964 21.5 6.5 27.0964 6.5 34V86C6.5 92.9036 12.0964 98.5 19 98.5H21.5V101C21.5 107.904 27.0964 113.5 34 113.5H86C92.9036 113.5 98.5 107.904 98.5 101V98.5H101C107.904 98.5 113.5 92.9036 113.5 86V34C113.5 27.0964 107.904 21.5 101 21.5H98.5V19C98.5 12.0964 92.9036 6.5 86 6.5H34ZM89.5 21.5V19C89.5 17.067 87.933 15.5 86 15.5H34C32.067 15.5 30.5 17.067 30.5 19V21.5H89.5ZM30.5 30.5H89.5V89.5H30.5V30.5ZM21.5 30.5H19C17.067 30.5 15.5 32.067 15.5 34V86C15.5 87.933 17.067 89.5 19 89.5H21.5V30.5ZM30.5 98.5V101C30.5 102.933 32.067 104.5 34 104.5H86C87.933 104.5 89.5 102.933 89.5 101V98.5H30.5ZM98.5 89.5V30.5H101C102.933 30.5 104.5 32.067 104.5 34V86C104.5 87.933 102.933 89.5 101 89.5H98.5Z" fill="black"/>
</svg>
