<svg width="120" height="120" viewBox="0 0 120 120" fill="none" xmlns="http://www.w3.org/2000/svg">
<path d="M92.3096 5.00391C98.7939 5.16811 104 10.4761 104 17V87C104 92.9459 99.6753 97.8797 94 98.832V90.4629C95.1951 89.7711 96 88.4802 96 87V44.8135C95.9999 43.7527 95.5782 42.7354 94.8281 41.9854L67.0146 14.1719C66.2646 13.4218 65.2473 13.0001 64.1865 13H43C41.9859 13 41.0605 13.378 40.3555 14H31.3779C32.71 8.8243 37.4085 5 43 5H92L92.3096 5.00391Z" fill="black"/>
<path d="M44.6865 21C47.869 21.0001 50.9215 22.2643 53.1719 24.5146L83.4854 54.8281C85.7357 57.0785 86.9999 60.131 87 63.3135V104C87 110.627 81.6274 116 75 116H26C19.3726 116 14 110.627 14 104V33C14 26.3726 19.3726 21 26 21H44.6865ZM26 29C23.7909 29 22 30.7909 22 33V104C22 106.209 23.7909 108 26 108H75C77.2091 108 79 106.209 79 104V64H56C49.3726 64 44 58.6274 44 52V29H26ZM52 52C52 54.2091 53.7909 56 56 56H73.3428L52 34.6572V52Z" fill="black"/>
</svg>
