<svg width="120" height="120" viewBox="0 0 120 120" fill="none" xmlns="http://www.w3.org/2000/svg">
<path fill-rule="evenodd" clip-rule="evenodd" d="M85.6373 19.2587C88.3116 16.317 92.7928 15.9123 95.951 18.3273C99.5157 21.0533 99.9815 26.2471 96.9586 29.5639L89.0854 38.2026L77.5952 28.1051L85.6373 19.2587ZM73.5586 32.5453L23.3558 87.7684C22.8876 88.2834 22.5321 88.8904 22.312 89.5506L19.1408 99.0644C18.359 101.41 20.5902 103.641 22.9355 102.859L32.073 99.8133C32.8838 99.5431 33.6117 99.0695 34.1874 98.4379L85.0431 42.6378L73.5586 32.5453ZM99.5956 13.5612C93.9621 9.25311 85.9682 9.97505 81.1976 15.2227L18.9161 83.7324C17.8862 84.8653 17.1041 86.2008 16.6199 87.6533L13.4487 97.167C11.1034 104.203 17.797 110.897 24.8329 108.551L33.9704 105.505C35.754 104.911 37.3555 103.869 38.6219 102.48L101.393 33.6055C106.786 27.6889 105.955 18.4239 99.5956 13.5612Z" fill="black"/>
<path fill-rule="evenodd" clip-rule="evenodd" d="M51.5 103C51.5 101.619 52.6193 100.5 54 100.5L103 100.5C104.381 100.5 105.5 101.619 105.5 103C105.5 104.381 104.381 105.5 103 105.5L54 105.5C52.6193 105.5 51.5 104.381 51.5 103Z" fill="black"/>
</svg>
