<svg width="120" height="120" viewBox="0 0 120 120" fill="none" xmlns="http://www.w3.org/2000/svg">
<path fill-rule="evenodd" clip-rule="evenodd" d="M72.9189 5C78.7586 5 83.8823 8.89387 85.4453 14.5205L87.8008 23H101C108.18 23 114 28.8203 114 36V55H81V65H114V101C114 108.18 108.18 114 101 114H19C11.8203 114 6 108.18 6 101V65H39V55H6V36C6 28.8203 11.8203 23 19 23H32.1992L34.5547 14.5205C36.1177 8.89388 41.2414 5 47.0811 5H72.9189ZM50 54C49.4477 54 49 54.4477 49 55V66C49 66.5523 49.4477 67 50 67H70C70.5523 67 71 66.5523 71 66V55C71 54.4477 70.5523 54 70 54H50ZM47.0811 15C45.7334 15 44.5511 15.8988 44.1904 17.1973L42.5781 23H77.4219L75.8096 17.1973C75.4489 15.8988 74.2666 15 72.9189 15H47.0811Z" fill="black"/>
</svg>
